<svg width="300" height="300" viewBox="0 0 300 300" fill="none" xmlns="http://www.w3.org/2000/svg">
<path d="M250.614 31.104C232.344 19.74 210.444 18.504 191.148 27.966C174.714 36 161.928 49.662 145.476 57.702C123 68.7 98.3222 74.712 75.6002 85.248C52.8782 95.784 31.1282 112.296 22.9802 135.984C13.3802 163.962 16.7522 196.86 31.4342 222.438C55.3022 264.012 102.642 278.778 148.218 278.238C244.524 277.104 294.132 160.464 278.418 76.638C274.986 58.476 266.622 41.058 250.614 31.104Z" fill="#90CAF9"/>
<path opacity="0.7" d="M250.614 31.104C232.344 19.74 210.444 18.504 191.148 27.966C174.714 36 161.928 49.662 145.476 57.702C123 68.7 98.3222 74.712 75.6002 85.248C52.8782 95.784 31.1282 112.296 22.9802 135.984C13.3802 163.962 16.7522 196.86 31.4342 222.438C55.3022 264.012 102.642 278.778 148.218 278.238C244.524 277.104 294.132 160.464 278.418 76.638C274.986 58.476 266.622 41.058 250.614 31.104Z" fill="white"/>
<path d="M72.3662 186.162L67.3262 187.074L66.3362 181.614L60.3482 182.7L61.3382 188.16L56.3042 189.072L57.4262 195.27L62.4602 194.358L63.4502 199.818L69.4382 198.738L68.4482 193.272L73.4882 192.36L72.3662 186.162Z" stroke="#90CAF9" stroke-linecap="round" stroke-linejoin="round"/>
<path d="M122.682 102.522L117.852 100.818L119.7 95.5861L113.964 93.5581L112.116 98.7901L107.286 97.0861L105.192 103.026L110.016 104.73L108.168 109.968L113.904 111.99L115.758 106.758L120.582 108.462L122.682 102.522Z" stroke="#90CAF9" stroke-linecap="round" stroke-linejoin="round"/>
<path d="M244.506 165.054L239.982 167.448L237.384 162.54L232.002 165.384L234.6 170.292L230.076 172.686L233.022 178.254L237.546 175.86L240.144 180.762L245.526 177.918L242.928 173.01L247.452 170.616L244.506 165.054Z" stroke="#90CAF9" stroke-linecap="round" stroke-linejoin="round"/>
<path d="M51.318 173.154C53.346 173.154 54.99 171.51 54.99 169.482C54.99 167.454 53.346 165.81 51.318 165.81C49.29 165.81 47.646 167.454 47.646 169.482C47.646 171.51 49.29 173.154 51.318 173.154Z" stroke="#90CAF9" stroke-linecap="round" stroke-linejoin="round"/>
<path d="M108.516 120.39C108.516 120.582 108.459 120.77 108.352 120.93C108.245 121.09 108.093 121.214 107.916 121.288C107.738 121.362 107.543 121.381 107.354 121.343C107.166 121.306 106.992 121.213 106.856 121.077C106.721 120.941 106.628 120.768 106.59 120.58C106.553 120.391 106.572 120.196 106.646 120.018C106.719 119.84 106.844 119.689 107.004 119.582C107.164 119.475 107.352 119.418 107.544 119.418C107.802 119.418 108.049 119.52 108.231 119.703C108.413 119.885 108.516 120.132 108.516 120.39Z" stroke="#90CAF9" stroke-linecap="round" stroke-linejoin="round"/>
<path d="M64.0378 103.716C64.0378 104.394 63.8365 105.058 63.4594 105.622C63.0823 106.187 62.5463 106.627 61.9192 106.886C61.2921 107.146 60.602 107.214 59.9363 107.082C59.2705 106.949 58.659 106.622 58.179 106.142C57.6991 105.663 57.3722 105.051 57.2398 104.385C57.1074 103.72 57.1753 103.029 57.4351 102.402C57.6948 101.775 58.1347 101.239 58.6991 100.862C59.2635 100.485 59.927 100.284 60.6058 100.284C61.5156 100.285 62.3876 100.647 63.0309 101.291C63.6741 101.934 64.0362 102.806 64.0378 103.716Z" stroke="#90CAF9" stroke-linecap="round" stroke-linejoin="round"/>
<path d="M215.256 150.204C215.256 150.588 215.142 150.964 214.929 151.284C214.715 151.603 214.411 151.853 214.056 152C213.701 152.147 213.31 152.185 212.933 152.11C212.556 152.035 212.209 151.85 211.938 151.578C211.666 151.307 211.481 150.96 211.406 150.583C211.331 150.206 211.369 149.815 211.516 149.46C211.663 149.105 211.912 148.801 212.232 148.587C212.552 148.374 212.928 148.26 213.312 148.26C213.828 148.26 214.322 148.465 214.687 148.829C215.051 149.194 215.256 149.688 215.256 150.204Z" stroke="#90CAF9" stroke-linecap="round" stroke-linejoin="round"/>
<path d="M195.606 90.9539C198.008 90.9539 199.956 89.0063 199.956 86.6039C199.956 84.2015 198.008 82.2539 195.606 82.2539C193.203 82.2539 191.256 84.2015 191.256 86.6039C191.256 89.0063 193.203 90.9539 195.606 90.9539Z" stroke="#90CAF9" stroke-linecap="round" stroke-linejoin="round"/>
<path d="M168.822 125.706C169.05 126.048 175.932 127.422 179.502 132.612C181.579 135.594 183.322 138.795 184.698 142.158C184.698 142.158 190.668 145.71 193.728 148.638C196.788 151.566 200.436 155.454 203.25 157.494C206.064 159.534 211.854 163.404 213.312 167.934C213.312 167.934 204.63 191.712 202.176 196.968C199.722 202.224 193.668 213.378 193.668 213.378L182.868 259.26H120.222L118.086 243.522C118.086 243.522 98.886 239.754 90.864 232.722C90.864 232.722 90.108 215.322 93.462 199.8C96.816 184.278 108.222 152.004 115.95 142.146C115.95 142.146 128.292 136.242 139.182 134.346C139.182 134.346 146.25 128.76 150.876 128.166C155.502 127.572 168.822 125.706 168.822 125.706Z" fill="white"/>
<path d="M118.932 250.614C124.494 251.676 129.342 252.594 135.006 252.528C140.67 252.462 146.454 251.19 151.086 247.944C151.981 247.2 152.996 246.611 154.086 246.204C156.546 245.514 158.982 247.14 161.424 247.896C164.52 248.856 167.916 248.4 170.952 247.248C173.988 246.096 176.718 244.302 179.424 242.514C179.024 248.034 178.894 253.564 179.034 259.104L182.892 259.26L192.774 215.778C192.774 215.778 175.872 235.41 167.634 241.272L151.83 237.204C151.83 237.204 150.342 238.44 147.21 239.064C147.21 239.064 145.776 244.578 137.712 244.59C129.648 244.602 118.086 243.522 118.086 243.522L118.932 250.614Z" fill="#90CAF9"/>
<path opacity="0.5" d="M118.932 250.614C124.494 251.676 129.342 252.594 135.006 252.528C140.67 252.462 146.454 251.19 151.086 247.944C151.981 247.2 152.996 246.611 154.086 246.204C156.546 245.514 158.982 247.14 161.424 247.896C164.52 248.856 167.916 248.4 170.952 247.248C173.988 246.096 176.718 244.302 179.424 242.514C179.024 248.034 178.894 253.564 179.034 259.104L182.892 259.26L192.774 215.778C192.774 215.778 175.872 235.41 167.634 241.272L151.83 237.204C151.83 237.204 150.342 238.44 147.21 239.064C147.21 239.064 145.776 244.578 137.712 244.59C129.648 244.602 118.086 243.522 118.086 243.522L118.932 250.614Z" fill="white"/>
<path d="M102.738 169.482C102.738 169.482 95.4004 205.104 95.7724 217.338C95.7724 217.338 105.744 214.542 112.704 217.338C112.704 217.338 100.86 216.018 95.7604 221.448C90.6604 226.878 106.356 241.146 137.76 238.248C137.76 238.248 144.024 240.21 147.204 239.058C147.204 239.058 146.352 244.734 137.706 244.584C129.096 244.242 103.908 244.032 90.8584 232.728C90.8644 232.734 89.2204 199.986 102.738 169.482Z" fill="#90CAF9"/>
<path opacity="0.6" d="M102.738 169.482C102.738 169.482 95.4004 205.104 95.7724 217.338C95.7724 217.338 105.744 214.542 112.704 217.338C112.704 217.338 100.86 216.018 95.7604 221.448C90.6604 226.878 106.356 241.146 137.76 238.248C137.76 238.248 144.024 240.21 147.204 239.058C147.204 239.058 146.352 244.734 137.706 244.584C129.096 244.242 103.908 244.032 90.8584 232.728C90.8644 232.734 89.2204 199.986 102.738 169.482Z" fill="white"/>
<path d="M117.744 176.31C117.744 176.31 119.91 192.084 123.408 195.384C126.906 198.684 143.208 197.604 149.664 201.162C149.664 201.162 155.742 190.632 166.734 184.044L151.83 207.51L138.948 204.468L123.222 202.068L121.902 205.104H119.538C119.538 205.104 119.274 188.268 117.744 176.31Z" fill="#90CAF9"/>
<path opacity="0.5" d="M117.744 176.31C117.744 176.31 119.91 192.084 123.408 195.384C126.906 198.684 143.208 197.604 149.664 201.162C149.664 201.162 155.742 190.632 166.734 184.044L151.83 207.51L138.948 204.468L123.222 202.068L121.902 205.104H119.538C119.538 205.104 119.274 188.268 117.744 176.31Z" fill="white"/>
<path d="M179.358 144.18C186.096 148.146 186.852 152.616 188.238 155.808C184.734 156.504 181.11 157.248 178.218 159.342C174.618 161.958 172.668 166.29 171.156 170.496C169.726 174.477 168.524 178.535 167.556 182.652C170.813 176.769 175.442 171.759 181.05 168.048C184.284 165.912 188.28 164.19 191.97 165.396C188.874 166.71 185.37 168.486 184.716 171.786C184.588 172.334 184.61 172.907 184.782 173.442C185.334 174.996 187.266 175.416 188.73 176.172C191.586 177.642 193.074 180.972 193.2 184.2C193.326 187.428 192.336 190.548 191.358 193.602C190.498 196.278 189.638 198.954 188.778 201.63C187.68 205.05 186.564 208.518 184.578 211.518C182.592 214.518 179.61 217.032 176.064 217.62C174.582 217.906 173.047 217.733 171.666 217.122C170.619 216.553 169.646 215.858 168.768 215.052C164.514 211.617 159.402 209.409 153.984 208.668C160.956 213.276 164.256 221.646 167.148 229.488C165.82 227.164 163.907 225.228 161.598 223.872C161.006 223.46 160.303 223.238 159.582 223.236C157.686 223.386 157.086 225.804 155.946 227.316C154.578 229.116 152.076 229.758 149.832 229.47C147.588 229.182 145.524 228.132 143.508 227.07L118.002 213.918L116.202 219.318C116.202 219.318 136.518 235.518 167.646 241.248C167.646 241.248 187.866 225.27 195.03 211.104C202.194 196.938 213.324 167.904 213.324 167.904C213.324 167.904 209.25 160.188 202.266 156.162C202.266 156.162 197.052 153.696 195.954 150.648C194.856 147.6 185.058 142.338 185.058 142.338C185.058 142.338 186.33 145.59 179.358 144.18Z" fill="#90CAF9"/>
<path opacity="0.6" d="M179.358 144.18C186.096 148.146 186.852 152.616 188.238 155.808C184.734 156.504 181.11 157.248 178.218 159.342C174.618 161.958 172.668 166.29 171.156 170.496C169.726 174.477 168.524 178.535 167.556 182.652C170.813 176.769 175.442 171.759 181.05 168.048C184.284 165.912 188.28 164.19 191.97 165.396C188.874 166.71 185.37 168.486 184.716 171.786C184.588 172.334 184.61 172.907 184.782 173.442C185.334 174.996 187.266 175.416 188.73 176.172C191.586 177.642 193.074 180.972 193.2 184.2C193.326 187.428 192.336 190.548 191.358 193.602C190.498 196.278 189.638 198.954 188.778 201.63C187.68 205.05 186.564 208.518 184.578 211.518C182.592 214.518 179.61 217.032 176.064 217.62C174.582 217.906 173.047 217.733 171.666 217.122C170.619 216.553 169.646 215.858 168.768 215.052C164.514 211.617 159.402 209.409 153.984 208.668C160.956 213.276 164.256 221.646 167.148 229.488C165.82 227.164 163.907 225.228 161.598 223.872C161.006 223.46 160.303 223.238 159.582 223.236C157.686 223.386 157.086 225.804 155.946 227.316C154.578 229.116 152.076 229.758 149.832 229.47C147.588 229.182 145.524 228.132 143.508 227.07L118.002 213.918L116.202 219.318C116.202 219.318 136.518 235.518 167.646 241.248C167.646 241.248 187.866 225.27 195.03 211.104C202.194 196.938 213.324 167.904 213.324 167.904C213.324 167.904 209.25 160.188 202.266 156.162C202.266 156.162 197.052 153.696 195.954 150.648C194.856 147.6 185.058 142.338 185.058 142.338C185.058 142.338 186.33 145.59 179.358 144.18Z" fill="white"/>
<path d="M177.216 88.95C177.216 88.95 178.578 73.068 171.732 71.55C164.886 70.032 161.04 63.75 161.04 63.75L136.752 70.53L132.984 85.134L135.384 92.526C135.384 92.526 135.888 99.384 135.984 102.774C136.08 106.164 135.984 108.774 138.552 112.89C141.12 117.006 143.508 121.092 149.058 124.65V134.004C149.058 134.004 145.626 144.018 147.522 150.162C147.522 150.162 148.656 151.362 151.788 149.562C154.92 147.762 168.318 138.81 172.992 129.462L174.444 105.696C174.444 105.696 178.302 106.296 179.964 102.78C182.406 99.342 182.31 95.334 181.362 92.07C180.414 88.806 176.334 90.918 176.334 90.918L177.216 88.95Z" fill="#B78876" fill-opacity="0.73"/>
<path d="M149.322 112.236C150.009 111.488 150.855 110.905 151.799 110.529C152.742 110.153 153.757 109.994 154.77 110.064C154.77 110.064 157.692 105.45 160.77 106.296C160.77 106.296 161.718 111.186 158.028 113.112C153.228 115.614 149.322 112.236 149.322 112.236Z" fill="#737373"/>
<path d="M140.298 68.5083C140.298 68.5083 134.484 76.1463 134.82 84.1083C135.156 92.0703 136.314 97.7163 135.978 103.86C135.642 110.004 142.122 120.294 148.764 124.44C153.726 127.542 159.948 127.014 164.778 123.84C170.178 120.24 173.148 113.772 174.234 107.562C174.342 106.962 174.426 106.362 174.486 105.714" stroke="#263238" stroke-linecap="round" stroke-linejoin="round"/>
<path d="M148.764 124.446C148.764 124.446 149.706 133.05 148.764 135.996C147.726 139.23 146.472 146.76 147.564 150.162C148.656 153.564 169.086 139.266 173.034 129.456C173.034 129.456 173.58 110.394 174.942 105.63" stroke="#263238" stroke-linecap="round" stroke-linejoin="round"/>
<path d="M148.2 112.026C148.2 112.026 157.494 114.654 161.298 105.06" stroke="#263238" stroke-linecap="round" stroke-linejoin="round"/>
<path d="M148.95 126.516C148.95 126.516 150.93 132.654 155.202 133.02C159.474 133.386 170.16 124.824 173.802 114.738V109.692C173.802 109.692 170.802 122.892 162.018 125.292C153.234 127.692 149.124 124.638 149.124 124.638L148.95 126.516Z" fill="#263238"/>
<path d="M160.764 106.296C156.636 106.008 154.764 110.064 154.764 110.064C153.747 109.94 152.715 110.074 151.763 110.454C150.811 110.833 149.969 111.446 149.316 112.236C150.333 113.149 151.584 113.761 152.928 114.004C154.272 114.248 155.658 114.114 156.93 113.616C161.622 111.984 160.764 106.296 160.764 106.296Z" stroke="#263238" stroke-linecap="round" stroke-linejoin="round"/>
<path d="M150.414 88.2002C150.465 90.1038 150.381 92.0086 150.162 93.9002C149.94 95.5982 149.154 97.2242 148.5 98.8202C147.9 100.272 146.898 102.504 147.732 104.034C148.68 105.768 151.83 104.034 151.83 104.034" stroke="#263238" stroke-linecap="round" stroke-linejoin="round"/>
<path d="M153.768 103.674C154.83 103.818 156.336 103.674 156.636 101.832" stroke="#263238" stroke-linecap="round" stroke-linejoin="round"/>
<path d="M157.2 85.908C158.227 84.9287 159.591 84.3823 161.01 84.3823C162.429 84.3823 163.793 84.9287 164.82 85.908" stroke="#263238" stroke-width="2" stroke-linecap="round" stroke-linejoin="round"/>
<path d="M145.092 87.4081C145.092 87.4081 142.278 83.8081 138.594 87.4081" stroke="#263238" stroke-width="2" stroke-linecap="round" stroke-linejoin="round"/>
<path d="M172.278 96.5103C172.278 96.5103 175.488 88.8003 179.676 90.4563C182.562 91.6023 182.736 96.5823 181.206 100.056C179.676 103.53 178.908 107.07 173.808 105.09" stroke="#263238" stroke-linecap="round" stroke-linejoin="round"/>
<path d="M172.848 95.3282C172.848 95.3282 169.764 94.2362 169.194 89.2262C168.624 84.2162 171.696 79.2002 170.556 75.6002C169.416 72.0002 160.434 73.8002 158.388 67.5242C158.388 67.5242 151.644 72.5522 138.588 71.4722C138.588 71.4722 135.834 76.1642 135.354 79.0322C134.711 83.5164 134.728 88.0706 135.402 92.5502C135.402 92.7062 135.456 92.8562 135.486 93.0122C136.422 97.8962 131.76 86.3642 131.886 81.4382C132.012 76.5122 129.042 70.2542 132.912 65.5922C136.782 60.9302 150.972 58.2002 153.768 56.0102C156.564 53.8202 162 59.6522 168.282 61.8002C174.564 63.9482 179.772 66.5102 178.98 75.4202C178.188 84.3302 179.022 85.5242 179.058 90.2162C179.058 90.2282 176.154 89.1362 172.848 95.3282Z" fill="#263238"/>
<path d="M161.022 92.4C161.022 93.6 160.56 94.596 159.984 94.596C159.408 94.596 158.952 93.612 158.952 92.4C158.952 91.188 159.414 90.21 159.984 90.21C160.554 90.21 161.022 91.2 161.022 92.4Z" fill="#263238"/>
<path d="M145.092 92.4C145.092 93.6 144.63 94.596 144.06 94.596C143.49 94.596 143.028 93.612 143.028 92.4C143.028 91.188 143.49 90.21 144.06 90.21C144.63 90.21 145.092 91.2 145.092 92.4Z" fill="#263238"/>
<path d="M157.2 95.3281C157.2 95.3281 159.342 97.6021 162.054 97.9261" stroke="#263238" stroke-linecap="round" stroke-linejoin="round"/>
<path d="M142.608 97.9261C142.608 97.9261 146.526 97.6501 147.408 95.3281" stroke="#263238" stroke-linecap="round" stroke-linejoin="round"/>
<path d="M151.716 151.62C154.632 149.766 158.49 150.462 161.682 151.776C163.434 152.502 165.102 153.414 166.848 154.176C167.712 154.558 168.602 154.875 169.512 155.124C171.702 155.694 170.916 152.976 170.79 151.758C170.61 150.012 170.484 148.26 170.274 146.526C170.188 146.167 170.231 145.789 170.394 145.458C170.61 145.191 170.911 145.007 171.246 144.936C175.092 143.736 179.238 144.264 183.246 144.336C183.61 144.379 183.979 144.31 184.302 144.138C184.902 143.748 184.836 142.866 184.674 142.17C183.288 136.242 178.398 130.344 173.082 127.38" stroke="#263238" stroke-linecap="round" stroke-linejoin="round"/>
<path d="M149.1 128.34C146.454 129.444 143.736 130.59 141.456 132.282C140.629 132.886 139.867 133.573 139.182 134.334C138.63 134.859 138.284 135.563 138.204 136.32C138.219 136.673 138.312 137.017 138.477 137.328C138.642 137.64 138.875 137.91 139.158 138.12C139.561 138.452 140.004 138.73 140.478 138.948C141.582 139.47 142.878 139.98 143.346 141.09C143.46 141.323 143.502 141.584 143.466 141.84C143.407 142.065 143.291 142.272 143.13 142.44C142.218 143.55 140.61 144.408 140.73 145.842C140.808 146.952 141.93 147.642 142.926 148.134C143.922 148.626 145.086 149.136 145.428 150.198" stroke="#263238" stroke-linecap="round" stroke-linejoin="round"/>
<path d="M133.434 72.078C133.824 69.678 136.332 68.13 138.744 67.74C141.156 67.35 143.634 67.74 146.064 67.53C148.096 67.3292 150.062 66.6944 151.828 65.6686C153.594 64.6428 155.119 63.2499 156.3 61.584" stroke="white" stroke-linecap="round" stroke-linejoin="round"/>
<path d="M136.164 65.334C140.52 62.76 146.64 65.436 150.888 62.688C152.09 61.8128 153.137 60.7419 153.984 59.52" stroke="white" stroke-linecap="round" stroke-linejoin="round"/>
<path d="M191.73 163.8C176.13 166.914 170.31 178.392 170.31 178.392L151.83 207.498" stroke="#263238" stroke-linecap="round" stroke-linejoin="round"/>
<path d="M178.542 160.656C179.836 159.457 181.302 158.458 182.892 157.692" stroke="#263238" stroke-linecap="round" stroke-linejoin="round"/>
<path d="M167.634 182.628C167.634 182.628 169.602 172.116 175.254 164.37" stroke="#263238" stroke-linecap="round" stroke-linejoin="round"/>
<path d="M119.538 205.056C119.538 205.056 118.728 172.854 115.938 167.934" stroke="#263238" stroke-linecap="round" stroke-linejoin="round"/>
<path d="M184.698 142.158C184.698 142.158 193.698 147.558 197.694 152.634C201.69 157.71 211.134 161.082 213.294 167.934C213.294 167.934 200.856 207.126 187.824 221.292C174.792 235.458 167.616 241.272 167.616 241.272C167.616 241.272 136.266 235.824 115.932 218.748L123.204 202.038C123.204 202.038 143.706 204.63 151.812 207.51C159.918 210.39 167.616 227.832 167.616 227.832" stroke="#263238" stroke-linecap="round" stroke-linejoin="round"/>
<path d="M151.83 207.51C151.83 207.51 166.182 210.3 170.844 216.834" stroke="#263238" stroke-linecap="round" stroke-linejoin="round"/>
<path d="M193.128 214.23L182.892 259.26H120.222L118.086 243.522" stroke="#263238" stroke-linecap="round" stroke-linejoin="round"/>
<path d="M147.21 239.064C143.748 246.156 139.182 244.59 139.182 244.59C103.872 245.928 90.8642 232.734 90.8642 232.734C90.8642 232.734 89.0642 214.176 96.0062 189.132C102.948 164.088 115.95 142.158 115.95 142.158C121.716 138.324 134.58 135.33 138.21 134.538L139.182 134.334" stroke="#263238" stroke-linecap="round" stroke-linejoin="round"/>
<path d="M139.2 244.59C139.2 244.59 137.334 244.284 137.808 231.912" stroke="#263238" stroke-linecap="round" stroke-linejoin="round"/>
<path d="M116.904 219.54C116.904 219.54 108.084 216.432 97.1582 223.992" stroke="#263238" stroke-linecap="round" stroke-linejoin="round"/>
<path d="M99.1382 216.834C99.1382 216.834 110.694 213.396 115.938 218.904" stroke="#263238" stroke-linecap="round" stroke-linejoin="round"/>
<path d="M114.69 218.592L116.19 219.342L121.902 205.074C121.902 205.074 115.986 204.108 106.614 215.778C109.541 215.812 112.376 216.8 114.69 218.592Z" fill="#B78876" fill-opacity="0.73" stroke="#263238" stroke-miterlimit="10"/>
<path d="M137.79 231.912V238.254C137.79 238.254 145.872 240.654 151.854 237.204L137.79 231.912Z" fill="#B78876" fill-opacity="0.73" stroke="#263238" stroke-miterlimit="10"/>
<path d="M181.596 144.27C181.602 144.387 181.59 144.504 181.56 144.618C181.308 145.608 175.146 168.87 155.424 179.22C155.253 179.312 155.061 179.359 154.866 179.358C154.598 179.358 154.338 179.268 154.127 179.102C153.916 178.937 153.766 178.706 153.702 178.445C153.638 178.185 153.663 177.911 153.772 177.666C153.882 177.422 154.071 177.221 154.308 177.096C172.308 167.658 178.65 146.148 179.202 144.168L181.596 144.27Z" fill="#263238"/>
<path d="M139.158 138.102C136.04 145.223 134.358 152.89 134.208 160.662C134.208 161.292 134.208 161.934 134.208 162.588C134.208 162.75 134.208 162.912 134.208 163.074C134.029 163.08 133.851 163.098 133.674 163.128C133.025 163.231 132.395 163.433 131.808 163.728C131.808 162.846 131.808 161.988 131.808 161.142C132.066 147.678 136.086 138.516 138.228 134.556L139.2 134.352C138.649 134.877 138.302 135.581 138.222 136.338C138.24 136.683 138.333 137.019 138.495 137.324C138.656 137.628 138.883 137.894 139.158 138.102Z" fill="#263238"/>
<path d="M162.786 173.808C164.19 175.758 163.038 178.998 160.206 181.044C157.374 183.09 153.942 183.162 152.532 181.212C151.122 179.262 152.274 176.022 155.106 173.976C157.938 171.93 161.4 171.858 162.786 173.808Z" fill="white" stroke="#263238" stroke-linecap="round" stroke-linejoin="round"/>
<path d="M159.294 172.65C160.29 174.03 159.474 176.322 157.494 177.768C155.514 179.214 153.06 179.268 152.094 177.888C151.128 176.508 151.914 174.216 153.894 172.77C155.874 171.324 158.298 171.276 159.294 172.65Z" fill="white" stroke="#263238" stroke-linecap="round" stroke-linejoin="round"/>
<path d="M143.436 197.004C143.181 197.174 142.87 197.24 142.567 197.187C142.265 197.135 141.994 196.969 141.81 196.723C141.627 196.477 141.544 196.17 141.58 195.865C141.615 195.56 141.767 195.281 142.002 195.084C142.104 195 146.13 191.574 144.366 180.036C144.216 179.058 144.024 178.014 143.766 176.916C143.004 173.418 141.828 168.99 139.422 165.738C138.85 164.88 138.066 164.185 137.146 163.718C136.227 163.251 135.202 163.03 134.172 163.074C133.993 163.08 133.815 163.098 133.638 163.128C132.989 163.231 132.359 163.433 131.772 163.728C129.98 164.654 128.619 166.243 127.98 168.156L127.764 168.756C126.403 172.435 125.291 176.202 124.434 180.03C123.474 184.74 123.15 189.678 124.854 193.128C125.311 194.075 125.961 194.915 126.763 195.594C127.565 196.273 128.501 196.776 129.51 197.07C129.781 197.159 130.011 197.342 130.16 197.585C130.308 197.829 130.365 198.117 130.32 198.398C130.276 198.68 130.132 198.937 129.915 199.122C129.699 199.307 129.423 199.409 129.138 199.41C129.012 199.41 128.886 199.39 128.766 199.35C127.454 198.956 126.238 198.294 125.195 197.406C124.152 196.518 123.304 195.423 122.706 194.19C120.786 190.308 121.038 185.022 122.01 180.03C122.872 175.925 124.039 171.889 125.502 167.958L125.718 167.358C126.19 165.93 126.98 164.628 128.029 163.55C129.077 162.472 130.357 161.647 131.772 161.136C132.262 160.966 132.766 160.842 133.278 160.764C133.584 160.722 133.878 160.692 134.19 160.674C135.594 160.635 136.986 160.95 138.238 161.588C139.489 162.226 140.561 163.168 141.354 164.328C144.03 167.928 145.302 172.686 146.112 176.418C146.394 177.702 146.61 178.908 146.772 180.048C148.668 192.984 143.67 196.836 143.436 197.004Z" fill="#263238" stroke="#263238" stroke-miterlimit="10"/>
<path d="M128.298 199.2C128.298 199.2 132.648 201 133.752 199.2C134.856 197.4 133.962 196.554 132.456 196.41C130.955 196.333 129.451 196.333 127.95 196.41L128.298 199.2Z" fill="#263238" stroke="#263238" stroke-miterlimit="10"/>
<path d="M130.296 198.6C130.218 198.841 130.065 199.051 129.86 199.199C129.656 199.348 129.409 199.428 129.156 199.428C129.03 199.428 128.904 199.408 128.784 199.368C127.472 198.974 126.256 198.312 125.213 197.424C124.17 196.536 123.322 195.441 122.724 194.208C120.804 190.326 121.056 185.04 122.028 180.048H124.428C123.468 184.758 123.144 189.696 124.848 193.146C125.305 194.093 125.955 194.933 126.757 195.612C127.559 196.291 128.495 196.794 129.504 197.088C129.656 197.135 129.797 197.211 129.919 197.312C130.041 197.414 130.142 197.538 130.216 197.679C130.29 197.82 130.335 197.973 130.348 198.132C130.362 198.29 130.344 198.449 130.296 198.6Z" fill="white" stroke="#263238" stroke-linecap="round" stroke-linejoin="round"/>
<path d="M139.428 195.702C139.247 195.917 139.114 196.167 139.036 196.437C138.959 196.707 138.939 196.99 138.978 197.268C139.098 197.679 139.358 198.035 139.713 198.274C140.068 198.513 140.496 198.62 140.922 198.576C141.774 198.463 142.553 198.035 143.106 197.376C143.706 196.704 145.788 192.306 143.862 193.062C142.464 193.59 140.364 194.484 139.428 195.702Z" fill="#263238" stroke="#263238" stroke-miterlimit="10"/>
<path d="M143.436 197.004C143.181 197.174 142.87 197.24 142.567 197.187C142.265 197.135 141.994 196.969 141.81 196.723C141.627 196.477 141.544 196.17 141.58 195.865C141.616 195.561 141.767 195.281 142.002 195.084C142.104 195 146.13 191.574 144.366 180.036H146.766C148.668 192.984 143.67 196.836 143.436 197.004Z" fill="white" stroke="#263238" stroke-linecap="round" stroke-linejoin="round"/>
<path opacity="0.2" d="M154.2 90.954C154.2 90.954 161.754 87.03 168.696 90.954C168.696 90.954 168.81 96.744 166.188 99.126C165.258 99.972 160.998 100.116 159.384 99.972C152.832 99.378 154.2 90.954 154.2 90.954Z" fill="white"/>
<path opacity="0.2" d="M149.46 90.954C149.46 90.954 141.906 87.03 134.97 90.954C134.97 90.954 134.856 96.744 137.472 99.126C138.402 99.972 142.668 100.116 144.276 99.972C150.828 99.378 149.46 90.954 149.46 90.954Z" fill="white"/>
<path d="M154.2 90.954C154.2 90.954 161.754 87.03 168.696 90.954C168.696 90.954 168.81 96.744 166.188 99.126C165.258 99.972 160.998 100.116 159.384 99.972C152.832 99.378 154.2 90.954 154.2 90.954Z" stroke="#263238" stroke-miterlimit="10"/>
<path d="M149.46 90.954C149.46 90.954 141.906 87.03 134.97 90.954C134.97 90.954 134.856 96.744 137.472 99.126C138.402 99.972 142.668 100.116 144.276 99.972C150.828 99.378 149.46 90.954 149.46 90.954Z" stroke="#263238" stroke-miterlimit="10"/>
<path d="M149.46 90.9543C149.46 90.9543 151.152 89.7123 154.2 90.9543" stroke="#263238" stroke-miterlimit="10"/>
<path d="M168.696 90.9541L171.852 92.4181" stroke="#263238" stroke-miterlimit="10"/>
<path d="M47.8921 275.232L70.0981 254.256H246.342L259.686 275.232H47.8921Z" fill="white" stroke="#263238" stroke-linecap="round" stroke-linejoin="round"/>
<path d="M259.686 275.232H47.8921V280.878H259.686V275.232Z" fill="#263238" stroke="#263238" stroke-linecap="round" stroke-linejoin="round"/>
<path d="M70.0981 270.048V265.698H104.898V270.048H98.1841H70.0981Z" fill="white" stroke="#263238" stroke-miterlimit="10"/>
<path d="M70.0981 265.698L90.6541 251.91L118.086 252.558L104.898 265.698H70.0981Z" fill="white" stroke="#263238" stroke-linecap="round" stroke-linejoin="round"/>
<path d="M104.898 270.048L118.086 256.836V252.558L104.898 265.698V270.048Z" fill="white" stroke="#263238" stroke-linecap="round" stroke-linejoin="round"/>
<path d="M103.956 264.6C103.956 264.6 101.178 265.152 101.178 267.558C101.178 269.964 103.578 270.672 103.578 270.672" stroke="#263238" stroke-width="2" stroke-linecap="round" stroke-linejoin="round"/>
<path d="M101.178 264.6C101.178 264.6 98.3999 265.152 98.3999 267.558C98.3999 269.964 100.8 270.672 100.8 270.672" stroke="#263238" stroke-width="2" stroke-linecap="round" stroke-linejoin="round"/>
<path d="M98.4001 264.6C98.4001 264.6 95.6221 265.152 95.6221 267.558C95.6221 269.964 98.0221 270.672 98.0221 270.672" stroke="#263238" stroke-width="2" stroke-linecap="round" stroke-linejoin="round"/>
<path d="M95.6222 264.6C95.6222 264.6 92.8442 265.152 92.8442 267.558C92.8442 269.964 95.2442 270.672 95.2442 270.672" stroke="#263238" stroke-width="2" stroke-linecap="round" stroke-linejoin="round"/>
<path d="M92.8439 264.6C92.8439 264.6 90.0659 265.152 90.0659 267.558C90.0659 269.964 92.4659 270.672 92.4659 270.672" stroke="#263238" stroke-width="2" stroke-linecap="round" stroke-linejoin="round"/>
<path d="M90.0661 264.6C90.0661 264.6 87.2881 265.152 87.2881 267.558C87.2881 269.964 89.6881 270.672 89.6881 270.672" stroke="#263238" stroke-width="2" stroke-linecap="round" stroke-linejoin="round"/>
<path d="M87.2882 264.6C87.2882 264.6 84.5103 265.152 84.5103 267.558C84.5103 269.964 86.9103 270.672 86.9103 270.672" stroke="#263238" stroke-width="2" stroke-linecap="round" stroke-linejoin="round"/>
<path d="M84.5099 264.6C84.5099 264.6 81.7319 265.152 81.7319 267.558C81.7319 269.964 84.1319 270.672 84.1319 270.672" stroke="#263238" stroke-width="2" stroke-linecap="round" stroke-linejoin="round"/>
<path d="M81.3903 264.6C81.3903 264.6 78.6123 265.152 78.6123 267.558C78.6123 269.964 81.0123 270.672 81.0123 270.672" stroke="#263238" stroke-width="2" stroke-linecap="round" stroke-linejoin="round"/>
<path d="M78.2643 264.6C78.2643 264.6 75.4863 265.152 75.4863 267.558C75.4863 269.964 77.8863 270.672 77.8863 270.672" stroke="#263238" stroke-width="2" stroke-linecap="round" stroke-linejoin="round"/>
<path d="M74.7902 264.6C74.7902 264.6 72.0122 265.152 72.0122 267.558C72.0122 269.964 74.4122 270.672 74.4122 270.672" stroke="#263238" stroke-width="2" stroke-linecap="round" stroke-linejoin="round"/>
<path d="M92.4002 255.288C90.4838 256.345 88.9649 257.999 88.0742 259.998C90.6002 259.2 92.5982 257.4 94.5122 255.6L92.4362 260.748C93.3919 260.67 94.3158 260.369 95.1331 259.867C95.9504 259.366 96.638 258.679 97.1402 257.862C96.9758 257.933 96.8281 258.038 96.707 258.17C96.5859 258.302 96.494 258.458 96.4374 258.628C96.3807 258.798 96.3606 258.978 96.3783 259.156C96.3961 259.334 96.4512 259.507 96.5402 259.662C98.2802 259.41 99.3902 257.73 100.266 256.206C100.427 257.054 100.49 257.918 100.452 258.78C101.907 258.989 103.392 258.8 104.748 258.234" stroke="#263238" stroke-width="0.75" stroke-linecap="round" stroke-linejoin="round"/>
<path d="M245.166 233.244H184.68V266.454H245.166V233.244Z" fill="white" stroke="#263238" stroke-linecap="round" stroke-linejoin="round"/>
<path d="M184.446 266.448L174.72 257.202V223.992L184.446 233.244V266.448Z" fill="white" stroke="#263238" stroke-linecap="round" stroke-linejoin="round"/>
<path d="M245.166 233.244L235.44 223.992H174.96L184.68 233.244H245.166Z" fill="white" stroke="#263238" stroke-linecap="round" stroke-linejoin="round"/>
<path d="M222.924 245.7H217.578V240.108H210.042V245.7H204.21V253.236H210.042V258.822H217.578V253.236H222.924V245.7Z" fill="#90CAF9" stroke="#263238" stroke-miterlimit="10"/>
<path d="M214.398 233.244L204.672 223.992" stroke="#263238" stroke-linecap="round" stroke-linejoin="round"/>
<path d="M86.5479 92.0969C93.6031 85.0416 93.6031 73.6029 86.5479 66.5477C79.4927 59.4925 68.0539 59.4925 60.9987 66.5477C53.9435 73.6029 53.9435 85.0416 60.9987 92.0969C68.0539 99.1521 79.4927 99.1521 86.5479 92.0969Z" fill="white" stroke="#263238" stroke-linecap="round" stroke-linejoin="round"/>
<path d="M88.8 76.5541C88.7998 77.7634 88.4206 78.9423 87.7156 79.9249C87.0107 80.9075 86.0155 81.6445 84.87 82.0321L76.8 84.7501L66.978 88.0681C65.5311 88.5438 63.9548 88.4283 62.5927 87.7468C61.2306 87.0653 60.193 85.873 59.7062 84.4299C59.2193 82.9867 59.3226 81.4096 59.9935 80.0422C60.6644 78.6749 61.8486 77.6281 63.288 77.1301L72.21 74.1301L81.174 71.1301C82.0412 70.8384 82.9653 70.7568 83.8702 70.8921C84.7751 71.0274 85.6349 71.3756 86.379 71.9081C87.123 72.4406 87.7299 73.1423 88.1497 73.9552C88.5696 74.7681 88.7904 75.6692 88.794 76.5841L88.8 76.5541Z" fill="white"/>
<path d="M88.8 76.5542C88.7998 77.7636 88.4206 78.9424 87.7156 79.925C87.0107 80.9077 86.0155 81.6446 84.87 82.0322L76.8 84.7502C76.5848 80.7745 74.957 77.0063 72.21 74.1242L81.174 71.1242C82.0412 70.8326 82.9653 70.751 83.8702 70.8862C84.7751 71.0215 85.6349 71.3697 86.379 71.9023C87.123 72.4348 87.7299 73.1364 88.1497 73.9493C88.5696 74.7623 88.7904 75.6633 88.794 76.5782L88.8 76.5542Z" fill="#90CAF9"/>
<path d="M88.8 76.5541C88.7998 77.7634 88.4206 78.9423 87.7156 79.9249C87.0107 80.9075 86.0155 81.6445 84.87 82.0321L76.8 84.7501L66.978 88.0681C65.5311 88.5438 63.9548 88.4283 62.5927 87.7468C61.2306 87.0653 60.193 85.873 59.7062 84.4299C59.2193 82.9867 59.3226 81.4096 59.9935 80.0422C60.6644 78.6749 61.8486 77.6281 63.288 77.1301L72.21 74.1301L81.174 71.1301C82.0412 70.8384 82.9653 70.7568 83.8702 70.8921C84.7751 71.0274 85.6349 71.3756 86.379 71.9081C87.123 72.4406 87.7299 73.1423 88.1497 73.9552C88.5696 74.7681 88.7904 75.6692 88.794 76.5841L88.8 76.5541Z" stroke="#263238" stroke-linecap="round" stroke-linejoin="round"/>
<path d="M76.8 84.75C76.6163 80.7669 74.984 76.9881 72.21 74.124" stroke="#263238" stroke-linecap="round" stroke-linejoin="round"/>
<path d="M86.8682 74.3999C87.247 75.038 87.4383 75.77 87.4202 76.5119" stroke="white" stroke-linecap="round" stroke-linejoin="round"/>
<path d="M74.4902 74.9999L81.6902 72.5999C82.336 72.3785 83.0229 72.3029 83.7014 72.3786C84.3799 72.4543 85.0332 72.6795 85.6142 73.0379" stroke="white" stroke-linecap="round" stroke-linejoin="round"/>
<path d="M196.525 54.8135C205.714 50.9246 210.01 40.3232 206.121 31.1347C202.232 21.9462 191.631 17.6501 182.442 21.539C173.254 25.428 168.958 36.0293 172.847 45.2178C176.736 54.4063 187.337 58.7024 196.525 54.8135Z" fill="white" stroke="#263238" stroke-linecap="round" stroke-linejoin="round"/>
<path d="M195.714 45.7381L179.958 40.4641C178.648 40.0237 177.566 39.0811 176.951 37.8435C176.335 36.6059 176.236 35.1745 176.676 33.8641C177.116 32.554 178.059 31.4723 179.296 30.8569C180.534 30.2415 181.965 30.1426 183.276 30.5821L199.032 35.8501C200.341 36.2919 201.422 37.2347 202.037 38.4718C202.652 39.709 202.752 41.1396 202.314 42.4501C201.873 43.7604 200.931 44.8424 199.694 45.4588C198.456 46.0752 197.025 46.1756 195.714 45.7381Z" fill="#90CAF9"/>
<path d="M184.17 40.0443L186.81 33.7383" stroke="#263238" stroke-linecap="round" stroke-linejoin="round"/>
<path d="M192.852 42.9301L195.48 36.6421" stroke="#263238" stroke-linecap="round" stroke-linejoin="round"/>
<path d="M186.348 40.4161C186.643 40.4161 186.882 40.1771 186.882 39.8821C186.882 39.5872 186.643 39.3481 186.348 39.3481C186.053 39.3481 185.814 39.5872 185.814 39.8821C185.814 40.1771 186.053 40.4161 186.348 40.4161Z" fill="#263238"/>
<path d="M191.598 41.4539C191.598 41.5595 191.567 41.6628 191.508 41.7506C191.45 41.8384 191.366 41.9069 191.269 41.9473C191.171 41.9877 191.064 41.9983 190.96 41.9777C190.857 41.9571 190.761 41.9062 190.687 41.8315C190.612 41.7568 190.561 41.6617 190.541 41.5581C190.52 41.4545 190.53 41.3471 190.571 41.2496C190.611 41.152 190.68 41.0686 190.768 41.0099C190.855 40.9512 190.959 40.9199 191.064 40.9199C191.206 40.9199 191.342 40.9762 191.442 41.0763C191.542 41.1765 191.598 41.3123 191.598 41.4539Z" fill="#263238"/>
<path d="M188.418 35.6642C188.713 35.6642 188.952 35.4251 188.952 35.1302C188.952 34.8353 188.713 34.5962 188.418 34.5962C188.123 34.5962 187.884 34.8353 187.884 35.1302C187.884 35.4251 188.123 35.6642 188.418 35.6642Z" fill="#263238"/>
<path d="M193.59 36.6541C193.59 36.7597 193.559 36.863 193.5 36.9508C193.441 37.0386 193.358 37.1071 193.26 37.1475C193.163 37.1879 193.055 37.1985 192.952 37.1779C192.848 37.1573 192.753 37.1064 192.678 37.0317C192.604 36.957 192.553 36.8619 192.532 36.7583C192.512 36.6547 192.522 36.5473 192.563 36.4498C192.603 36.3522 192.671 36.2688 192.759 36.2101C192.847 36.1514 192.95 36.1201 193.056 36.1201C193.198 36.1201 193.333 36.1764 193.434 36.2765C193.534 36.3767 193.59 36.5125 193.59 36.6541Z" fill="#263238"/>
<path d="M195.714 45.7381L179.958 40.4641C178.648 40.0237 177.566 39.0811 176.951 37.8435C176.335 36.6059 176.236 35.1745 176.676 33.8641C177.116 32.554 178.059 31.4723 179.296 30.8569C180.534 30.2415 181.965 30.1426 183.276 30.5821L199.032 35.8501C200.341 36.2919 201.422 37.2347 202.037 38.4718C202.652 39.709 202.752 41.1396 202.314 42.4501C201.873 43.7604 200.931 44.8424 199.694 45.4588C198.456 46.0752 197.025 46.1756 195.714 45.7381Z" stroke="#263238" stroke-linecap="round" stroke-linejoin="round"/>
<path d="M121.284 55.2599C131.262 55.2599 139.35 47.1715 139.35 37.1939C139.35 27.2164 131.262 19.1279 121.284 19.1279C111.307 19.1279 103.218 27.2164 103.218 37.1939C103.218 47.1715 111.307 55.2599 121.284 55.2599Z" fill="white" stroke="#263238" stroke-linecap="round" stroke-linejoin="round"/>
<path d="M131.634 37.656V45.06C131.634 46.938 130.434 48.462 128.964 48.462H113.604C112.128 48.462 110.934 46.938 110.934 45.06V37.656C110.934 35.778 112.134 34.254 113.604 34.254H116.13V29.958H126.33V34.254H128.946C130.434 34.254 131.634 35.778 131.634 37.656Z" fill="white" stroke="#263238" stroke-linecap="round" stroke-linejoin="round"/>
<path d="M131.628 38.5083H110.934V43.0983H131.628V38.5083Z" fill="#90CAF9" stroke="#263238" stroke-miterlimit="10"/>
<path d="M117.54 24.9302H125.124C125.98 24.9302 126.801 25.2703 127.407 25.8756C128.012 26.481 128.352 27.3021 128.352 28.1582V31.5122H114.306V28.1582C114.306 27.7338 114.39 27.3135 114.552 26.9215C114.715 26.5295 114.953 26.1733 115.254 25.8735C115.554 25.5737 115.911 25.336 116.303 25.1742C116.695 25.0123 117.116 24.9294 117.54 24.9302Z" fill="#90CAF9" stroke="#263238" stroke-miterlimit="10"/>
<path d="M116.76 25.1343V31.5123" stroke="#263238" stroke-linecap="round" stroke-linejoin="round"/>
<path d="M120.078 24.9302V31.5122" stroke="#263238" stroke-linecap="round" stroke-linejoin="round"/>
<path d="M123.396 24.9302V31.5122" stroke="#263238" stroke-linecap="round" stroke-linejoin="round"/>
<path d="M126.714 25.3022V31.5122" stroke="#263238" stroke-linecap="round" stroke-linejoin="round"/>
<path d="M74.9991 135.957C76.6132 126.111 69.9399 116.821 60.0937 115.207C50.2476 113.592 40.9572 120.266 39.3431 130.112C37.7289 139.958 44.4023 149.248 54.2484 150.863C64.0946 152.477 73.385 145.803 74.9991 135.957Z" fill="white" stroke="#263238" stroke-linecap="round" stroke-linejoin="round"/>
<path d="M66.3354 137.695C68.3032 133.534 65.5976 128.127 60.2924 125.618C54.9871 123.109 49.0912 124.449 47.1235 128.61C45.1557 132.77 47.8613 138.177 53.1665 140.686C58.4718 143.195 64.3677 141.856 66.3354 137.695Z" fill="#90CAF9" stroke="#263238" stroke-linecap="round" stroke-linejoin="round"/>
<path d="M66.9918 136.28C68.8377 132.376 66.0334 127.178 60.7281 124.669C55.4229 122.161 49.6257 123.291 47.7798 127.194C45.9339 131.097 48.7383 136.296 54.0435 138.805C59.3487 141.313 65.1459 140.183 66.9918 136.28Z" fill="#90CAF9" stroke="#263238" stroke-linecap="round" stroke-linejoin="round"/>
<path d="M60.4501 126.396L53.8921 135.618" stroke="#263238" stroke-linecap="round" stroke-linejoin="round"/>
<path d="M56.502 124.902C57.3809 125.021 58.2467 125.222 59.088 125.502" stroke="white" stroke-linecap="round" stroke-linejoin="round"/>
<path d="M50.6759 133.584C50.6759 133.584 47.3279 129.918 50.5979 126.384C51.3525 125.615 52.3353 125.11 53.3999 124.944" stroke="white" stroke-linecap="round" stroke-linejoin="round"/>
<path d="M265.297 135.967C266.912 126.121 260.238 116.831 250.392 115.217C240.546 113.603 231.256 120.276 229.641 130.122C228.027 139.968 234.701 149.259 244.547 150.873C254.393 152.487 263.683 145.814 265.297 135.967Z" fill="white" stroke="#263238" stroke-linecap="round" stroke-linejoin="round"/>
<path d="M257.838 134.856C257.7 135.054 257.562 135.258 257.418 135.456C254.712 139.206 250.542 142.704 247.452 143.394V143.346C244.452 142.674 240.414 139.344 237.708 135.708C237.558 135.51 237.414 135.306 237.276 135.108C234.672 131.376 233.574 127.458 236.472 125.838C242.364 122.55 247.452 129.6 247.452 129.6C247.452 129.6 252.552 122.604 258.432 125.886C261.252 127.458 260.286 131.214 257.838 134.856Z" fill="#90CAF9" stroke="#263238" stroke-miterlimit="10"/>
<path d="M257.838 134.856C257.7 135.054 257.562 135.258 257.418 135.456H255.93L254.226 137.706L253.068 131.034L251.268 135.57H247.014L244.836 139.2L243.156 131.85L240.99 135.684H237.708C237.558 135.486 237.414 135.282 237.276 135.084H240.642L243.396 130.206L245.088 137.616L246.69 134.946H250.89L253.29 128.802L254.574 136.218L255.624 134.832L257.838 134.856Z" fill="white"/>
<path d="M230.076 97.59C240.054 97.59 248.142 89.5016 248.142 79.524C248.142 69.5464 240.054 61.458 230.076 61.458C220.099 61.458 212.01 69.5464 212.01 79.524C212.01 89.5016 220.099 97.59 230.076 97.59Z" fill="white" stroke="#263238" stroke-linecap="round" stroke-linejoin="round"/>
<path d="M228.72 71.172C228.894 71.562 227.808 72.426 226.32 73.104C224.832 73.782 223.44 74.016 223.266 73.62C223.092 73.224 224.172 72.366 225.666 71.688C227.16 71.01 228.54 70.8 228.72 71.172Z" fill="white" stroke="#263238" stroke-linecap="round" stroke-linejoin="round"/>
<path d="M236.85 87.93L231.444 90.546L226.596 80.562L223.248 73.662L228.654 71.04L231.918 77.772L236.85 87.93Z" fill="white" stroke="#263238" stroke-linecap="round" stroke-linejoin="round"/>
<path d="M224.25 75.7203L226.596 74.6343L224.25 75.7203Z" fill="#90CAF9"/>
<path d="M224.25 75.7203L226.596 74.6343" stroke="#263238" stroke-linecap="round" stroke-linejoin="round"/>
<path d="M225.27 77.8922L227.616 76.8062L225.27 77.8922Z" fill="#90CAF9"/>
<path d="M225.27 77.8922L227.616 76.8062" stroke="#263238" stroke-linecap="round" stroke-linejoin="round"/>
<path d="M233.514 89.5442L236.304 93.2042L234.912 88.8662L233.514 89.5442Z" fill="white" stroke="#263238" stroke-linecap="round" stroke-linejoin="round"/>
<path d="M236.85 87.93C235.585 89.1971 233.97 90.0578 232.212 90.402L231.444 90.546L226.596 80.562L231.918 77.772L236.85 87.93Z" fill="#90CAF9" stroke="#263238" stroke-miterlimit="10"/>
<path d="M227.616 82.458L229.824 81.438" stroke="#263238" stroke-linecap="round" stroke-linejoin="round"/>
<path d="M228.828 84.78L230.994 83.79L228.828 84.78Z" fill="#90CAF9"/>
<path d="M228.828 84.78L230.994 83.79" stroke="#263238" stroke-linecap="round" stroke-linejoin="round"/>
<path d="M225.12 72.7501L223.41 68.9041L224.754 68.1421L226.596 72.0361L225.12 72.7501Z" fill="white" stroke="#263238" stroke-linecap="round" stroke-linejoin="round"/>
<path d="M228.054 67.6739L227.646 66.7739L220.446 69.9959L220.854 70.8959C221.022 71.2799 222.768 70.8599 224.76 69.9719C226.752 69.0839 228.222 68.0519 228.054 67.6739Z" fill="white" stroke="#263238" stroke-linecap="round" stroke-linejoin="round"/>
<path d="M227.646 66.7742C227.478 66.3962 225.726 66.8103 223.74 67.6983C221.754 68.5863 220.278 69.6183 220.446 69.9963C220.614 70.3743 222.366 69.9602 224.352 69.0662C226.338 68.1722 227.814 67.1522 227.646 66.7742Z" fill="white" stroke="#263238" stroke-linecap="round" stroke-linejoin="round"/>
</svg>
