<svg width="300" height="300" viewBox="0 0 300 300" fill="none" xmlns="http://www.w3.org/2000/svg">
<g clip-path="url(#clip0_180_8583)">
<path d="M330 -30H-30V330H330V-30Z" fill="white"/>
<path d="M330 -30H-30V330H330V-30Z" fill="white"/>
<mask id="mask0_180_8583" style="mask-type:luminance" maskUnits="userSpaceOnUse" x="103" y="108" width="65" height="60">
<path d="M103.875 108H167.2V167.862H103.875V108Z" fill="white"/>
</mask>
<g mask="url(#mask0_180_8583)">
<path d="M162.947 146.728C161.616 145.394 160.388 143.969 159.263 142.456V151.259C159.275 151.881 159.225 152.5 159.116 153.109C159.006 153.722 158.835 154.316 158.606 154.894C158.378 155.472 158.094 156.022 157.753 156.544C157.416 157.066 157.028 157.547 156.594 157.991C156.156 158.434 155.685 158.831 155.169 159.181C154.653 159.531 154.11 159.825 153.538 160.066C152.966 160.309 152.372 160.491 151.763 160.612C151.153 160.734 150.538 160.797 149.916 160.797C149.294 160.797 148.678 160.734 148.069 160.612C147.46 160.491 146.869 160.309 146.297 160.066C145.722 159.825 145.178 159.531 144.666 159.181C144.15 158.831 143.675 158.434 143.241 157.991C142.806 157.547 142.419 157.066 142.078 156.544C141.741 156.022 141.456 155.472 141.228 154.894C140.997 154.316 140.828 153.722 140.719 153.109C140.606 152.5 140.56 151.881 140.572 151.259V131.006H120.325C119.835 131.006 119.347 130.969 118.86 130.891C118.375 130.816 117.9 130.7 117.431 130.55C116.966 130.397 116.513 130.209 116.075 129.988C115.638 129.763 115.222 129.506 114.825 129.219C114.428 128.928 114.056 128.609 113.71 128.263C113.363 127.913 113.044 127.541 112.756 127.144C112.469 126.744 112.213 126.328 111.991 125.888C111.769 125.45 111.581 124.997 111.431 124.531C111.281 124.063 111.169 123.588 111.094 123.1C111.019 122.616 110.981 122.128 110.981 121.634C110.985 121.144 111.025 120.656 111.103 120.172C111.181 119.688 111.297 119.212 111.45 118.744C111.606 118.278 111.794 117.825 112.019 117.391C112.244 116.953 112.503 116.538 112.794 116.141C113.085 115.744 113.403 115.375 113.753 115.028C114.1 114.684 114.475 114.366 114.875 114.081L115.581 113.572C114.669 112.809 113.819 111.984 113.035 111.091C112.2 110.144 111.422 109.156 110.694 108.125L110.35 108.381C109.656 108.9 109.01 109.472 108.406 110.094C107.803 110.716 107.253 111.378 106.753 112.088C106.253 112.794 105.813 113.537 105.428 114.312C105.047 115.091 104.725 115.891 104.469 116.719C104.21 117.547 104.019 118.387 103.894 119.244C103.766 120.1 103.706 120.963 103.716 121.828C103.725 122.694 103.8 123.553 103.944 124.409C104.088 125.263 104.294 126.1 104.569 126.922C104.844 127.744 105.181 128.538 105.578 129.306C105.978 130.075 106.431 130.809 106.947 131.506C107.46 132.206 108.022 132.859 108.638 133.469C109.253 134.078 109.913 134.634 110.616 135.141C111.319 135.647 112.056 136.097 112.828 136.488C113.6 136.878 114.4 137.206 115.225 137.472C116.047 137.738 116.888 137.941 117.744 138.075C118.6 138.209 119.46 138.275 120.325 138.275H133.303V151.244C133.294 151.794 133.313 152.344 133.36 152.891C133.403 153.438 133.478 153.981 133.578 154.522C133.678 155.062 133.803 155.597 133.956 156.125C134.11 156.653 134.288 157.172 134.494 157.681C134.697 158.191 134.928 158.691 135.181 159.178C135.435 159.666 135.713 160.138 136.013 160.597C136.316 161.056 136.638 161.5 136.981 161.928C137.328 162.356 137.694 162.766 138.078 163.156C138.463 163.55 138.869 163.919 139.291 164.272C139.713 164.622 140.15 164.953 140.606 165.259C141.063 165.569 141.531 165.853 142.013 166.116C142.497 166.375 142.994 166.612 143.5 166.825C144.006 167.038 144.522 167.225 145.047 167.384C145.572 167.547 146.106 167.681 146.644 167.788C147.181 167.897 147.725 167.978 148.272 168.031C148.819 168.088 149.366 168.112 149.916 168.112C150.466 168.112 151.016 168.088 151.56 168.031C152.106 167.978 152.65 167.897 153.191 167.788C153.728 167.681 154.26 167.547 154.785 167.384C155.31 167.225 155.828 167.038 156.335 166.825C156.841 166.612 157.335 166.375 157.819 166.116C158.303 165.853 158.772 165.569 159.228 165.259C159.681 164.953 160.122 164.622 160.544 164.272C160.966 163.919 161.369 163.55 161.756 163.156C162.141 162.766 162.506 162.356 162.85 161.928C163.197 161.5 163.519 161.056 163.819 160.597C164.122 160.138 164.397 159.666 164.653 159.178C164.906 158.691 165.135 158.191 165.341 157.681C165.544 157.172 165.722 156.653 165.875 156.125C166.028 155.597 166.156 155.062 166.256 154.522C166.356 153.981 166.428 153.438 166.475 152.891C166.522 152.344 166.541 151.794 166.531 151.244V149.753C165.253 148.844 164.06 147.834 162.947 146.728Z" fill="#7BC1B7"/>
</g>
<mask id="mask1_180_8583" style="mask-type:luminance" maskUnits="userSpaceOnUse" x="132" y="75" width="65" height="53">
<path d="M132 75.6221H196.116V128H132V75.6221Z" fill="white"/>
</mask>
<g mask="url(#mask1_180_8583)">
<path d="M134.872 108.25C134.319 109.541 133.553 110.691 132.575 111.697L132.816 112.244V112.3H140.572V92.0722C140.585 91.4659 140.653 90.8659 140.781 90.2753C140.91 89.6815 141.097 89.1097 141.335 88.5534C141.575 87.9972 141.869 87.469 142.21 86.969C142.553 86.469 142.941 86.0065 143.375 85.5847C143.806 85.1597 144.275 84.7815 144.781 84.4472C145.288 84.1159 145.822 83.8347 146.385 83.6065C146.944 83.3753 147.522 83.2034 148.116 83.0878C148.71 82.9722 149.31 82.9128 149.916 82.9128C150.522 82.9128 151.122 82.9722 151.716 83.0878C152.313 83.2034 152.891 83.3753 153.45 83.6065C154.01 83.8347 154.544 84.1159 155.05 84.4472C155.556 84.7815 156.025 85.1597 156.46 85.5847C156.891 86.0065 157.278 86.469 157.622 86.969C157.966 87.469 158.256 87.9972 158.497 88.5534C158.738 89.1097 158.922 89.6815 159.05 90.2753C159.178 90.8659 159.25 91.4659 159.263 92.0722V112.316H162.738C163.897 111.757 165.119 111.475 166.406 111.475C167.694 111.475 168.916 111.757 170.075 112.316H179.5C180.113 112.316 180.722 112.378 181.322 112.497C181.922 112.619 182.506 112.794 183.075 113.032C183.641 113.266 184.178 113.553 184.688 113.894C185.197 114.235 185.669 114.622 186.103 115.057C186.538 115.491 186.925 115.963 187.266 116.472C187.606 116.982 187.894 117.519 188.128 118.085C188.366 118.653 188.541 119.238 188.663 119.838C188.781 120.438 188.844 121.047 188.844 121.66C188.844 122.228 188.791 122.794 188.688 123.35C191.325 123.875 193.538 124.91 194.841 127.225C194.91 127.347 194.969 127.475 195.028 127.61L195.275 126.872C195.481 126.25 195.647 125.619 195.778 124.978C195.91 124.338 196.003 123.691 196.056 123.038C196.11 122.385 196.125 121.732 196.103 121.075C196.078 120.422 196.019 119.772 195.919 119.125C195.816 118.475 195.678 117.838 195.503 117.207C195.328 116.575 195.116 115.957 194.866 115.353C194.619 114.747 194.335 114.157 194.016 113.585C193.697 113.013 193.347 112.463 192.963 111.932C192.578 111.4 192.166 110.894 191.722 110.413C191.278 109.932 190.806 109.478 190.31 109.05C189.813 108.625 189.291 108.228 188.747 107.866C188.203 107.5 187.641 107.169 187.056 106.872C186.475 106.575 185.875 106.313 185.26 106.085C184.647 105.857 184.022 105.669 183.385 105.516C182.747 105.363 182.103 105.247 181.453 105.169C180.803 105.094 180.15 105.053 179.497 105.053H166.531V92.0722C166.522 91.5315 166.488 90.994 166.428 90.4597C166.369 89.9222 166.281 89.3909 166.169 88.8659C166.056 88.3378 165.919 87.8159 165.756 87.3034C165.594 86.7909 165.406 86.2847 165.194 85.7909C164.985 85.294 164.747 84.8097 164.488 84.3378C164.228 83.8659 163.947 83.4065 163.644 82.9597C163.341 82.5159 163.016 82.0847 162.672 81.6722C162.325 81.2597 161.96 80.8628 161.578 80.4847C161.194 80.1065 160.791 79.7472 160.372 79.4097C159.953 79.069 159.519 78.7503 159.069 78.4534C158.619 78.1565 158.156 77.8847 157.681 77.6315C157.203 77.3784 156.716 77.1503 156.216 76.9472C155.719 76.744 155.213 76.5628 154.694 76.4097C154.178 76.2534 153.656 76.1222 153.128 76.019C152.6 75.9159 152.066 75.8378 151.528 75.7847C150.994 75.7315 150.456 75.7065 149.916 75.7065C149.378 75.7065 148.841 75.7315 148.303 75.7847C147.766 75.8378 147.235 75.9159 146.706 76.019C146.178 76.1222 145.653 76.2534 145.138 76.4097C144.622 76.5628 144.116 76.744 143.616 76.9472C143.116 77.1503 142.628 77.3784 142.153 77.6315C141.675 77.8847 141.213 78.1565 140.763 78.4534C140.313 78.7503 139.878 79.069 139.46 79.4097C139.041 79.7472 138.641 80.1065 138.256 80.4847C137.872 80.8628 137.506 81.2597 137.163 81.6722C136.816 82.0847 136.491 82.5159 136.188 82.9597C135.885 83.4065 135.603 83.8659 135.344 84.3378C135.085 84.8097 134.85 85.294 134.638 85.7909C134.425 86.2847 134.238 86.7909 134.075 87.3034C133.913 87.8159 133.775 88.3378 133.663 88.8659C133.55 89.3909 133.466 89.9222 133.406 90.4597C133.344 90.994 133.31 91.5315 133.303 92.0722V92.3784C135.253 97.1378 136.372 104.607 134.872 108.25Z" fill="#0B8FAC"/>
</g>
<path d="M108.972 99.7252C109.291 102.119 111.725 106.394 114.637 109.678C115.834 111.025 117.616 112.76 119.291 113.375C120.831 113.903 122.406 114.05 124.016 113.813L124.853 115.725C124.978 116.016 125.166 116.256 125.412 116.447C125.662 116.641 125.941 116.763 126.25 116.813L126.337 117.094L127.219 116.71C127.306 116.96 127.4 117.185 127.494 117.403C128.078 118.741 128.856 119.96 129.825 121.05C131.531 122.938 133.587 124.294 135.994 125.119C139.416 126.35 142.291 125.941 144.831 125.575C149.178 124.95 152.053 124.541 156.003 132.878C158.278 137.688 161.284 142.063 164.453 145.213C168.222 148.947 172.228 150.953 176.031 151.053C181.681 151.16 186.65 147.285 190.784 139.475C193.597 134.178 194.297 130.606 192.981 128.278C191.35 125.385 187.334 125.16 182.681 124.894C179.137 124.694 175.131 124.469 171.962 122.981C172.087 122.756 172.197 122.525 172.294 122.288C172.391 122.05 172.472 121.806 172.537 121.56C172.603 121.31 172.653 121.06 172.691 120.806C172.725 120.55 172.747 120.297 172.753 120.041C172.756 119.785 172.747 119.528 172.719 119.272C172.694 119.016 172.653 118.766 172.594 118.516C172.537 118.266 172.466 118.019 172.378 117.778C172.291 117.535 172.191 117.3 172.075 117.072C171.959 116.844 171.831 116.622 171.687 116.41C171.547 116.194 171.391 115.991 171.225 115.797C171.056 115.603 170.878 115.419 170.687 115.247C170.5 115.072 170.3 114.913 170.091 114.763C169.881 114.616 169.662 114.481 169.437 114.356C169.212 114.235 168.981 114.128 168.741 114.035C168.503 113.941 168.259 113.863 168.009 113.797C167.762 113.735 167.509 113.685 167.256 113.65C167.003 113.616 166.747 113.6 166.491 113.597C166.234 113.594 165.978 113.606 165.722 113.635C165.469 113.666 165.216 113.71 164.966 113.769C164.716 113.828 164.472 113.9 164.231 113.991C163.991 114.078 163.756 114.185 163.528 114.3C163.3 114.419 163.081 114.55 162.869 114.694C162.656 114.838 162.453 114.994 162.262 115.166C162.069 115.335 161.887 115.513 161.716 115.703C161.544 115.897 161.384 116.097 161.237 116.306C161.094 116.519 160.959 116.738 160.841 116.963C160.719 117.191 160.612 117.422 160.522 117.663C160.431 117.903 160.353 118.147 160.291 118.397C160.231 118.644 160.184 118.897 160.153 119.15C160.122 119.406 160.106 119.663 160.106 119.919C160.106 120.175 160.122 120.431 160.153 120.685C160.184 120.941 160.228 121.191 160.291 121.441C160.353 121.691 160.428 121.935 160.522 122.172C160.612 122.413 160.719 122.647 160.837 122.872C160.956 123.1 161.091 123.319 161.237 123.528C161.384 123.741 161.541 123.941 161.712 124.131C161.884 124.322 162.066 124.503 162.259 124.672C162.45 124.841 162.653 125 162.866 125.144C163.078 125.288 163.297 125.419 163.525 125.538C163.753 125.656 163.987 125.76 164.228 125.847C164.469 125.938 164.712 126.013 164.962 126.072C165.212 126.131 165.466 126.175 165.719 126.203C165.975 126.231 166.231 126.247 166.487 126.244C166.744 126.241 167 126.222 167.253 126.191C167.506 126.156 167.759 126.106 168.006 126.044C168.256 125.978 168.5 125.9 168.737 125.806C168.978 125.713 169.209 125.606 169.434 125.485C169.659 125.363 169.878 125.225 170.087 125.078C173.916 127.106 178.484 127.375 182.541 127.597C186.237 127.803 189.728 128.003 190.628 129.603C191.175 130.566 191.228 132.841 188.397 138.191C184.766 145.028 180.622 148.453 176.094 148.341C168.819 148.178 162.044 139.291 158.462 131.731C153.65 121.585 148.972 122.253 144.444 122.9C142.109 123.235 139.697 123.581 136.912 122.578C132.497 120.994 130.55 118.003 129.691 115.638L129.881 115.56C130.106 115.46 130.303 115.322 130.472 115.144C130.644 114.966 130.775 114.763 130.862 114.535C130.953 114.306 130.997 114.069 130.991 113.822C130.987 113.578 130.934 113.341 130.837 113.116L129.994 111.203C131.262 110.181 132.225 108.928 132.884 107.441C134.5 103.553 132.412 93.6596 129.884 90.5971C128.734 89.2315 126.994 88.4409 124.787 88.3002C124.5 87.769 124.097 87.3471 123.575 87.0377C123.056 86.7284 122.494 86.5721 121.887 86.5752C121.616 86.5752 121.347 86.6096 121.084 86.6752C120.819 86.744 120.569 86.8409 120.328 86.9721C120.091 87.1002 119.869 87.2565 119.669 87.4409C119.469 87.6252 119.294 87.8315 119.147 88.0596C118.997 88.2877 118.878 88.5315 118.791 88.7877C118.7 89.044 118.644 89.3096 118.622 89.5815C118.6 89.8502 118.609 90.1221 118.653 90.3909C118.697 90.6596 118.775 90.919 118.881 91.1659C119.012 91.4659 119.184 91.7409 119.397 91.9877C119.609 92.2346 119.853 92.4471 120.128 92.6221C120.403 92.7971 120.697 92.9284 121.009 93.0159C121.325 93.1034 121.644 93.144 121.972 93.1346C122.297 93.1284 122.616 93.0721 122.925 92.9721C123.234 92.869 123.522 92.7252 123.787 92.5377C124.056 92.3471 124.287 92.1252 124.491 91.869C124.691 91.6096 124.847 91.3315 124.966 91.0252C126.197 91.1534 127.125 91.5565 127.728 92.2377L127.791 92.3127C128.684 93.3909 129.672 96.1627 130.247 99.2034C130.822 102.241 130.878 105.153 130.375 106.369C129.45 108.591 126.928 110.085 126.144 110.51C125.291 110.803 122.491 111.635 120.231 110.8C118.997 110.347 116.919 108.353 115.059 105.825C113.197 103.294 111.85 100.725 111.666 99.3159C111.541 98.3877 111.869 97.4034 112.644 96.369C112.894 96.469 113.153 96.5377 113.422 96.5752C113.691 96.6096 113.959 96.6127 114.228 96.5846C114.497 96.5534 114.759 96.4909 115.012 96.3971C115.266 96.3002 115.506 96.1784 115.728 96.0221C115.95 95.869 116.153 95.6909 116.331 95.4877C116.509 95.2846 116.662 95.0627 116.784 94.8221C116.909 94.5815 117.003 94.3284 117.066 94.0659C117.125 93.8034 117.153 93.5346 117.15 93.2627C117.147 92.994 117.109 92.7284 117.037 92.4659C116.969 92.2034 116.869 91.9534 116.737 91.719C116.606 91.4815 116.447 91.2627 116.262 91.0659C116.075 90.869 115.869 90.6971 115.641 90.5502C115.416 90.4034 115.172 90.2877 114.916 90.2002C114.659 90.1127 114.397 90.0596 114.125 90.0377C113.856 90.0159 113.587 90.0284 113.319 90.0721C113.053 90.119 112.797 90.194 112.547 90.3034C112.162 90.469 111.825 90.7002 111.528 90.994C111.234 91.2909 111.003 91.6315 110.837 92.0127C110.669 92.3971 110.581 92.7971 110.566 93.2159C110.553 93.6346 110.616 94.0377 110.756 94.4315C109.356 96.144 108.737 97.969 108.972 99.7252Z" fill="#7BC1B7"/>
<path d="M80.0067 179.724V191.336H78.1067V183.836C78.1067 183.536 78.1192 183.211 78.1442 182.861L74.6442 189.461C74.4755 189.78 74.2224 189.936 73.8817 189.936H73.5692C73.2255 189.936 72.9724 189.78 72.8067 189.461L69.2567 182.836C69.2724 183.011 69.2849 183.186 69.2942 183.361C69.3099 183.536 69.3192 183.696 69.3192 183.836V191.336H67.4067V179.724H69.0442C69.1349 179.724 69.213 179.73 69.2817 179.736C69.3567 179.736 69.4224 179.749 69.4817 179.774C69.538 179.792 69.588 179.824 69.6317 179.874C69.6817 179.924 69.7255 179.992 69.7692 180.074L73.2442 186.511C73.3349 186.686 73.4192 186.867 73.4942 187.049C73.5692 187.233 73.6442 187.421 73.7192 187.611C73.7942 187.411 73.8724 187.221 73.9567 187.036C74.038 186.855 74.1255 186.674 74.2192 186.499L77.6442 180.074C77.6849 179.992 77.7317 179.924 77.7817 179.874C77.8317 179.824 77.8817 179.792 77.9317 179.774C77.988 179.749 78.0505 179.736 78.1192 179.736C78.1942 179.73 78.2755 179.724 78.3692 179.724H80.0067Z" fill="#237FAC"/>
<path d="M84.758 181.436V184.661H88.8205V186.324H84.758V189.611H89.908V191.336H82.583V179.724H89.908V181.436H84.758Z" fill="#237FAC"/>
<path d="M102.13 185.524C102.13 186.383 101.986 187.171 101.705 187.886C101.421 188.596 101.021 189.208 100.505 189.724C99.9955 190.233 99.3799 190.63 98.6549 190.911C97.9299 191.196 97.1236 191.336 96.2424 191.336H91.8174V179.724H96.2424C97.1236 179.724 97.9299 179.871 98.6549 180.161C99.3799 180.446 99.9955 180.842 100.505 181.349C101.021 181.858 101.421 182.471 101.705 183.186C101.986 183.896 102.13 184.674 102.13 185.524ZM99.9174 185.524C99.9174 184.892 99.833 184.324 99.6674 183.824C99.4986 183.317 99.2549 182.886 98.9299 182.536C98.6111 182.18 98.2299 181.908 97.7799 181.724C97.3299 181.533 96.8174 181.436 96.2424 181.436H93.9924V189.624H96.2424C96.8174 189.624 97.3299 189.533 97.7799 189.349C98.2299 189.158 98.6111 188.886 98.9299 188.536C99.2549 188.18 99.4986 187.749 99.6674 187.249C99.833 186.742 99.9174 186.167 99.9174 185.524Z" fill="#237FAC"/>
<path d="M106.206 191.336H104.031V179.724H106.206V191.336Z" fill="#237FAC"/>
<path d="M116.905 181.499H113.405V191.336H111.242V181.499H107.742V179.724H116.905V181.499Z" fill="#237FAC"/>
<path d="M121.94 185.249C122.346 185.249 122.703 185.199 123.003 185.099C123.309 184.999 123.559 184.861 123.753 184.686C123.953 184.505 124.096 184.286 124.19 184.036C124.29 183.786 124.34 183.517 124.34 183.224C124.34 182.633 124.143 182.183 123.753 181.874C123.368 181.558 122.778 181.399 121.978 181.399H120.59V185.249H121.94ZM127.503 191.336H125.553C125.178 191.336 124.906 191.192 124.74 190.899L122.303 187.186C122.209 187.046 122.109 186.946 122.003 186.886C121.893 186.83 121.731 186.799 121.515 186.799H120.59V191.336H118.428V179.724H121.978C122.759 179.724 123.434 179.808 124.003 179.974C124.568 180.133 125.031 180.361 125.39 180.661C125.756 180.955 126.021 181.305 126.19 181.711C126.365 182.121 126.453 182.571 126.453 183.061C126.453 183.455 126.393 183.824 126.278 184.174C126.159 184.524 125.993 184.842 125.778 185.124C125.559 185.408 125.293 185.658 124.978 185.874C124.659 186.083 124.296 186.249 123.89 186.374C124.021 186.458 124.146 186.555 124.265 186.661C124.39 186.771 124.496 186.899 124.59 187.049L127.503 191.336Z" fill="#237FAC"/>
<path d="M134.891 186.949L133.479 183.086C133.41 182.921 133.341 182.721 133.266 182.486C133.191 182.246 133.116 181.986 133.041 181.711C132.973 181.986 132.904 182.246 132.829 182.486C132.754 182.721 132.679 182.924 132.604 183.099L131.204 186.949H134.891ZM138.716 191.336H137.041C136.848 191.336 136.695 191.292 136.579 191.199C136.46 191.108 136.373 190.992 136.316 190.849L135.454 188.474H130.641L129.766 190.849C129.723 190.974 129.641 191.086 129.516 191.186C129.398 191.286 129.248 191.336 129.066 191.336H127.379L131.954 179.724H134.154L138.716 191.336Z" fill="#237FAC"/>
<path d="M149.707 179.724V191.336H148.595C148.42 191.336 148.273 191.311 148.157 191.261C148.048 191.205 147.938 191.105 147.832 190.961L141.77 183.224C141.801 183.574 141.82 183.899 141.82 184.199V191.336H139.907V179.724H141.045C141.135 179.724 141.213 179.73 141.282 179.736C141.348 179.746 141.407 179.761 141.457 179.786C141.507 179.811 141.557 179.849 141.607 179.899C141.657 179.942 141.71 179.999 141.77 180.074L147.857 187.849C147.838 187.658 147.823 187.471 147.807 187.286C147.798 187.105 147.795 186.936 147.795 186.786V179.724H149.707Z" fill="#237FAC"/>
<path d="M158.469 181.836C158.4 181.946 158.331 182.03 158.256 182.086C158.187 182.136 158.1 182.161 157.994 182.161C157.884 182.161 157.762 182.121 157.631 182.036C157.497 181.955 157.337 181.861 157.156 181.761C156.981 181.655 156.769 181.558 156.519 181.474C156.275 181.392 155.987 181.349 155.656 181.349C155.356 181.349 155.094 181.386 154.869 181.461C154.644 181.536 154.456 181.642 154.306 181.774C154.156 181.899 154.044 182.055 153.969 182.236C153.894 182.411 153.856 182.605 153.856 182.811C153.856 183.086 153.931 183.317 154.081 183.499C154.231 183.683 154.431 183.842 154.681 183.974C154.937 184.099 155.225 184.211 155.544 184.311C155.869 184.411 156.197 184.521 156.531 184.636C156.872 184.755 157.2 184.886 157.519 185.036C157.844 185.186 158.131 185.38 158.381 185.611C158.631 185.846 158.831 186.133 158.981 186.474C159.137 186.808 159.219 187.217 159.219 187.699C159.219 188.224 159.125 188.717 158.944 189.174C158.769 189.633 158.506 190.033 158.156 190.374C157.812 190.708 157.394 190.974 156.894 191.174C156.394 191.364 155.822 191.461 155.181 191.461C154.812 191.461 154.45 191.424 154.094 191.349C153.734 191.283 153.387 191.183 153.056 191.049C152.731 190.917 152.422 190.758 152.131 190.574C151.847 190.383 151.594 190.171 151.369 189.936L151.994 188.899C152.05 188.824 152.122 188.761 152.206 188.711C152.287 188.661 152.381 188.636 152.481 188.636C152.612 188.636 152.756 188.692 152.906 188.799C153.062 188.908 153.25 189.033 153.469 189.174C153.684 189.308 153.934 189.43 154.219 189.536C154.5 189.646 154.847 189.699 155.256 189.699C155.862 189.699 156.334 189.555 156.669 189.261C157.009 188.971 157.181 188.549 157.181 187.999C157.181 187.699 157.106 187.455 156.956 187.261C156.806 187.061 156.6 186.899 156.344 186.774C156.094 186.642 155.806 186.53 155.481 186.436C155.162 186.346 154.837 186.246 154.506 186.136C154.181 186.03 153.856 185.899 153.531 185.749C153.206 185.599 152.919 185.408 152.669 185.174C152.419 184.933 152.212 184.633 152.056 184.274C151.906 183.908 151.831 183.458 151.831 182.924C151.831 182.508 151.912 182.099 152.081 181.699C152.256 181.292 152.5 180.933 152.819 180.624C153.144 180.317 153.537 180.071 154.006 179.886C154.481 179.696 155.022 179.599 155.631 179.599C156.322 179.599 156.956 179.708 157.531 179.924C158.106 180.133 158.597 180.43 159.006 180.811L158.469 181.836Z" fill="#237FAC"/>
<path d="M164.865 185.561C165.265 185.561 165.609 185.511 165.902 185.411C166.202 185.311 166.446 185.171 166.64 184.986C166.84 184.805 166.984 184.58 167.077 184.311C167.177 184.046 167.227 183.749 167.227 183.424C167.227 183.117 167.177 182.836 167.077 182.586C166.984 182.33 166.84 182.111 166.64 181.936C166.446 181.761 166.205 181.63 165.915 181.536C165.621 181.446 165.271 181.399 164.865 181.399H163.252V185.561H164.865ZM164.865 179.724C165.646 179.724 166.321 179.817 166.89 179.999C167.455 180.183 167.921 180.436 168.29 180.761C168.655 181.086 168.93 181.48 169.115 181.936C169.296 182.386 169.39 182.883 169.39 183.424C169.39 183.992 169.293 184.508 169.102 184.974C168.918 185.442 168.64 185.846 168.265 186.186C167.89 186.521 167.418 186.783 166.852 186.974C166.284 187.158 165.621 187.249 164.865 187.249H163.252V191.336H161.09V179.724H164.865Z" fill="#237FAC"/>
<path d="M177.168 186.949L175.756 183.086C175.687 182.921 175.618 182.721 175.543 182.486C175.468 182.246 175.393 181.986 175.318 181.711C175.25 181.986 175.181 182.246 175.106 182.486C175.031 182.721 174.956 182.924 174.881 183.099L173.481 186.949H177.168ZM180.993 191.336H179.318C179.125 191.336 178.971 191.292 178.856 191.199C178.737 191.108 178.65 190.992 178.593 190.849L177.731 188.474H172.918L172.043 190.849C172 190.974 171.918 191.086 171.793 191.186C171.675 191.286 171.525 191.336 171.343 191.336H169.656L174.231 179.724H176.431L180.993 191.336Z" fill="#237FAC"/>
<path d="M185.697 185.249C186.103 185.249 186.459 185.199 186.759 185.099C187.065 184.999 187.315 184.861 187.509 184.686C187.709 184.505 187.853 184.286 187.947 184.036C188.047 183.786 188.097 183.517 188.097 183.224C188.097 182.633 187.9 182.183 187.509 181.874C187.125 181.558 186.534 181.399 185.734 181.399H184.347V185.249H185.697ZM191.259 191.336H189.309C188.934 191.336 188.662 191.192 188.497 190.899L186.059 187.186C185.965 187.046 185.865 186.946 185.759 186.886C185.65 186.83 185.487 186.799 185.272 186.799H184.347V191.336H182.184V179.724H185.734C186.515 179.724 187.19 179.808 187.759 179.974C188.325 180.133 188.787 180.361 189.147 180.661C189.512 180.955 189.778 181.305 189.947 181.711C190.122 182.121 190.209 182.571 190.209 183.061C190.209 183.455 190.15 183.824 190.034 184.174C189.915 184.524 189.75 184.842 189.534 185.124C189.315 185.408 189.05 185.658 188.734 185.874C188.415 186.083 188.053 186.249 187.647 186.374C187.778 186.458 187.903 186.555 188.022 186.661C188.147 186.771 188.253 186.899 188.347 187.049L191.259 191.336Z" fill="#237FAC"/>
<path d="M194.685 181.436V184.661H198.748V186.324H194.685V189.611H199.835V191.336H192.51V179.724H199.835V181.436H194.685Z" fill="#237FAC"/>
<path d="M211.545 179.724V191.336H210.432C210.257 191.336 210.11 191.311 209.995 191.261C209.885 191.205 209.776 191.105 209.67 190.961L203.607 183.224C203.638 183.574 203.657 183.899 203.657 184.199V191.336H201.745V179.724H202.882C202.973 179.724 203.051 179.73 203.12 179.736C203.185 179.746 203.245 179.761 203.295 179.786C203.345 179.811 203.395 179.849 203.445 179.899C203.495 179.942 203.548 179.999 203.607 180.074L209.695 187.849C209.676 187.658 209.66 187.471 209.645 187.286C209.635 187.105 209.632 186.936 209.632 186.786V179.724H211.545Z" fill="#237FAC"/>
<path d="M222.093 188.599C222.218 188.599 222.325 188.646 222.418 188.736L223.268 189.661C222.793 190.246 222.209 190.692 221.518 190.999C220.834 191.308 220.009 191.461 219.043 191.461C218.184 191.461 217.409 191.317 216.718 191.024C216.034 190.733 215.446 190.324 214.956 189.799C214.471 189.274 214.096 188.649 213.831 187.924C213.571 187.192 213.443 186.392 213.443 185.524C213.443 184.658 213.581 183.861 213.856 183.136C214.137 182.411 214.534 181.786 215.043 181.261C215.55 180.736 216.156 180.33 216.856 180.036C217.556 179.746 218.331 179.599 219.181 179.599C220.031 179.599 220.781 179.736 221.431 180.011C222.087 180.286 222.646 180.649 223.106 181.099L222.393 182.111C222.343 182.171 222.284 182.224 222.218 182.274C222.15 182.324 222.059 182.349 221.943 182.349C221.868 182.349 221.784 182.33 221.693 182.286C221.609 182.236 221.518 182.18 221.418 182.111C221.318 182.046 221.2 181.974 221.068 181.899C220.934 181.817 220.775 181.742 220.593 181.674C220.418 181.608 220.212 181.555 219.981 181.511C219.746 181.461 219.481 181.436 219.181 181.436C218.656 181.436 218.175 181.53 217.743 181.711C217.318 181.896 216.946 182.161 216.631 182.511C216.321 182.861 216.081 183.292 215.906 183.799C215.737 184.308 215.656 184.883 215.656 185.524C215.656 186.183 215.746 186.767 215.931 187.274C216.112 187.783 216.362 188.211 216.681 188.561C216.996 188.905 217.368 189.171 217.793 189.361C218.225 189.546 218.687 189.636 219.181 189.636C219.481 189.636 219.746 189.621 219.981 189.586C220.221 189.555 220.443 189.505 220.643 189.436C220.843 189.361 221.031 189.271 221.206 189.161C221.387 189.055 221.568 188.921 221.743 188.761C221.8 188.711 221.859 188.674 221.918 188.649C221.975 188.617 222.034 188.599 222.093 188.599Z" fill="#237FAC"/>
<path d="M229.729 186.836V191.336H227.579V186.836L223.354 179.724H225.254C225.435 179.724 225.582 179.771 225.692 179.861C225.807 179.955 225.904 180.067 225.979 180.199L228.092 184.086C228.217 184.311 228.323 184.53 228.417 184.736C228.517 184.936 228.604 185.142 228.679 185.349C228.745 185.142 228.823 184.936 228.917 184.736C229.007 184.53 229.11 184.311 229.229 184.086L231.342 180.199C231.398 180.083 231.485 179.974 231.604 179.874C231.72 179.774 231.87 179.724 232.054 179.724H233.967L229.729 186.836Z" fill="#237FAC"/>
<path d="M81.5597 204.553C80.9847 204.553 80.5347 204.387 80.2097 204.053C79.8847 203.722 79.7222 203.237 79.7222 202.603V200.041H80.1972V202.591C80.1972 203.109 80.3128 203.497 80.5472 203.753C80.7784 204.003 81.1159 204.128 81.5597 204.128C82.0097 204.128 82.3503 204.003 82.5847 203.753C82.8159 203.497 82.9347 203.109 82.9347 202.591V200.041H83.3972V202.603C83.3972 203.237 83.2347 203.722 82.9097 204.053C82.5909 204.387 82.1409 204.553 81.5597 204.553Z" fill="#0B8FAC"/>
<path d="M90.4753 200.041V204.516H90.0878L87.2128 200.891V204.516H86.7378V200.041H87.1253L90.0128 203.678V200.041H90.4753Z" fill="#0B8FAC"/>
<path d="M93.8496 200.041H94.3246V204.103H96.8246V204.516H93.8496V200.041Z" fill="#0B8FAC"/>
<path d="M101.493 204.553C101.043 204.553 100.636 204.459 100.28 204.265C99.9207 204.065 99.6426 203.797 99.4426 203.453C99.2426 203.103 99.1426 202.712 99.1426 202.278C99.1426 201.853 99.2426 201.472 99.4426 201.128C99.6426 200.778 99.9207 200.503 100.28 200.303C100.636 200.103 101.043 200.003 101.493 200.003C101.933 200.003 102.33 200.103 102.68 200.303C103.036 200.497 103.318 200.765 103.518 201.115C103.724 201.465 103.83 201.853 103.83 202.278C103.83 202.712 103.724 203.103 103.518 203.453C103.318 203.797 103.036 204.065 102.68 204.265C102.33 204.459 101.933 204.553 101.493 204.553ZM101.493 204.128C101.843 204.128 102.158 204.05 102.443 203.89C102.733 203.734 102.958 203.512 103.118 203.228C103.274 202.947 103.355 202.628 103.355 202.278C103.355 201.928 103.274 201.612 103.118 201.328C102.958 201.047 102.733 200.825 102.443 200.665C102.158 200.509 101.843 200.428 101.493 200.428C101.133 200.428 100.808 200.509 100.518 200.665C100.233 200.825 100.008 201.047 99.8426 201.328C99.6832 201.612 99.6051 201.928 99.6051 202.278C99.6051 202.628 99.6832 202.947 99.8426 203.228C100.008 203.512 100.233 203.734 100.518 203.89C100.808 204.05 101.133 204.128 101.493 204.128Z" fill="#0B8FAC"/>
<path d="M108.758 204.553C108.308 204.553 107.902 204.459 107.546 204.265C107.196 204.065 106.921 203.797 106.721 203.453C106.521 203.103 106.421 202.712 106.421 202.278C106.421 201.853 106.521 201.465 106.721 201.115C106.921 200.765 107.199 200.497 107.558 200.303C107.915 200.103 108.315 200.003 108.758 200.003C109.09 200.003 109.396 200.062 109.671 200.178C109.952 200.287 110.196 200.447 110.396 200.653L110.096 200.953C109.746 200.603 109.302 200.428 108.771 200.428C108.421 200.428 108.099 200.512 107.808 200.678C107.515 200.837 107.287 201.059 107.121 201.34C106.962 201.615 106.883 201.928 106.883 202.278C106.883 202.628 106.962 202.947 107.121 203.228C107.287 203.512 107.515 203.734 107.808 203.89C108.099 204.05 108.421 204.128 108.771 204.128C109.312 204.128 109.752 203.95 110.096 203.59L110.396 203.89C110.196 204.109 109.952 204.275 109.671 204.39C109.387 204.5 109.083 204.553 108.758 204.553Z" fill="#0B8FAC"/>
<path d="M114.707 202.416L113.795 203.341V204.516H113.32V200.041H113.795V202.741L116.42 200.041H116.97L115.032 202.066L117.095 204.516H116.532L114.707 202.416Z" fill="#0B8FAC"/>
<path d="M119.78 200.041H120.255V204.516H119.78V200.041Z" fill="#0B8FAC"/>
<path d="M127.364 200.041V204.516H126.977L124.102 200.891V204.516H123.627V200.041H124.014L126.902 203.678V200.041H127.364Z" fill="#0B8FAC"/>
<path d="M133.889 202.278H134.339V203.99C134.129 204.175 133.882 204.315 133.601 204.415C133.317 204.509 133.017 204.553 132.701 204.553C132.251 204.553 131.845 204.459 131.489 204.265C131.139 204.065 130.857 203.797 130.651 203.453C130.451 203.103 130.351 202.712 130.351 202.278C130.351 201.853 130.451 201.465 130.651 201.115C130.857 200.765 131.139 200.497 131.489 200.303C131.845 200.103 132.254 200.003 132.714 200.003C133.054 200.003 133.367 200.059 133.651 200.165C133.932 200.275 134.176 200.437 134.376 200.653L134.076 200.953C133.726 200.603 133.276 200.428 132.726 200.428C132.367 200.428 132.042 200.509 131.751 200.665C131.457 200.825 131.229 201.047 131.064 201.328C130.895 201.612 130.814 201.928 130.814 202.278C130.814 202.628 130.895 202.947 131.064 203.228C131.229 203.512 131.454 203.734 131.739 203.89C132.029 204.05 132.357 204.128 132.726 204.128C133.182 204.128 133.57 204.015 133.889 203.79V202.278Z" fill="#0B8FAC"/>
<path d="M144.924 200.041V204.516H144.462V202.453H141.662V204.516H141.187V200.041H141.662V202.041H144.462V200.041H144.924Z" fill="#0B8FAC"/>
<path d="M151.461 204.103V204.516H148.298V200.041H151.373V200.453H148.773V202.041H151.086V202.441H148.773V204.103H151.461Z" fill="#0B8FAC"/>
<path d="M157.303 203.316H154.803L154.265 204.516H153.778L155.828 200.041H156.29L158.328 204.516H157.84L157.303 203.316ZM157.128 202.941L156.053 200.541L154.978 202.941H157.128Z" fill="#0B8FAC"/>
<path d="M160.989 200.041H161.464V204.103H163.964V204.516H160.989V200.041Z" fill="#0B8FAC"/>
<path d="M167.545 200.453H165.97V200.041H169.582V200.453H168.02V204.516H167.545V200.453Z" fill="#0B8FAC"/>
<path d="M175.992 200.041V204.516H175.529V202.453H172.729V204.516H172.254V200.041H172.729V202.041H175.529V200.041H175.992Z" fill="#0B8FAC"/>
<path d="M184.907 204.553C184.457 204.553 184.051 204.459 183.695 204.265C183.345 204.065 183.07 203.797 182.87 203.453C182.67 203.103 182.57 202.712 182.57 202.278C182.57 201.853 182.67 201.465 182.87 201.115C183.07 200.765 183.348 200.497 183.707 200.303C184.064 200.103 184.464 200.003 184.907 200.003C185.239 200.003 185.545 200.062 185.82 200.178C186.101 200.287 186.345 200.447 186.545 200.653L186.245 200.953C185.895 200.603 185.451 200.428 184.92 200.428C184.57 200.428 184.248 200.512 183.957 200.678C183.664 200.837 183.435 201.059 183.27 201.34C183.11 201.615 183.032 201.928 183.032 202.278C183.032 202.628 183.11 202.947 183.27 203.228C183.435 203.512 183.664 203.734 183.957 203.89C184.248 204.05 184.57 204.128 184.92 204.128C185.46 204.128 185.901 203.95 186.245 203.59L186.545 203.89C186.345 204.109 186.101 204.275 185.82 204.39C185.535 204.5 185.232 204.553 184.907 204.553Z" fill="#0B8FAC"/>
<path d="M189.469 200.041H189.944V204.103H192.444V204.516H189.469V200.041Z" fill="#0B8FAC"/>
<path d="M197.962 203.316H195.462L194.925 204.516H194.437L196.487 200.041H196.95L198.987 204.516H198.5L197.962 203.316ZM197.787 202.941L196.712 200.541L195.637 202.941H197.787Z" fill="#0B8FAC"/>
<path d="M204.71 204.516L203.685 203.078C203.567 203.097 203.448 203.103 203.323 203.103H202.123V204.516H201.648V200.041H203.323C203.898 200.041 204.342 200.178 204.66 200.453C204.985 200.728 205.148 201.103 205.148 201.578C205.148 201.928 205.06 202.225 204.885 202.466C204.71 202.709 204.46 202.878 204.135 202.978L205.223 204.516H204.71ZM203.31 202.691C203.751 202.691 204.089 202.597 204.323 202.403C204.554 202.203 204.673 201.928 204.673 201.578C204.673 201.222 204.554 200.947 204.323 200.753C204.089 200.553 203.751 200.453 203.31 200.453H202.123V202.691H203.31Z" fill="#0B8FAC"/>
<path d="M208.185 200.041H208.66V204.516H208.185V200.041Z" fill="#0B8FAC"/>
<path d="M212.907 200.453H211.332V200.041H214.945V200.453H213.382V204.516H212.907V200.453Z" fill="#0B8FAC"/>
<path d="M219.154 202.966V204.516H218.692V202.966L216.904 200.041H217.404L218.942 202.553L220.467 200.041H220.942L219.154 202.966Z" fill="#0B8FAC"/>
</g>
<defs>
<clipPath id="clip0_180_8583">
<rect width="300" height="300" fill="white"/>
</clipPath>
</defs>
</svg>
