<svg width="61" height="60" viewBox="0 0 61 60" fill="none" xmlns="http://www.w3.org/2000/svg">
<rect width="61" height="60" fill="#C8C6C6"/>
<g id="Sign In">
<rect width="375" height="812" transform="translate(-119 -567)" fill="white"/>
<g id="Frame 31">
<g id="Group 270">
<g id="Ellipse 30">
<circle cx="30.5" cy="30" r="30" fill="white"/>
<circle cx="30.5" cy="30" r="29.5" stroke="black" stroke-opacity="0.2"/>
</g>
<g id="&#240;&#159;&#166;&#134; icon &#34;google icon&#34;">
<path id="Vector" d="M42.747 27.4539H41.6999V27.3999H29.9999V32.5999H37.3468C36.275 35.627 33.3949 37.7999 29.9999 37.7999C25.6924 37.7999 22.2 34.3075 22.2 29.9999C22.2 25.6924 25.6924 22.2 29.9999 22.2C31.9883 22.2 33.7972 22.9501 35.1746 24.1753L38.8516 20.4983C36.5298 18.3344 33.4241 17 29.9999 17C22.8207 17 17 22.8207 17 29.9999C17 37.1791 22.8207 42.9999 29.9999 42.9999C37.1791 42.9999 42.9999 37.1791 42.9999 29.9999C42.9999 29.1283 42.9102 28.2774 42.747 27.4539Z" fill="#FFC107"/>
<path id="Vector_2" d="M18.499 23.9491L22.7702 27.0815C23.9258 24.2202 26.7247 22.2 30.0001 22.2C31.9884 22.2 33.7973 22.9501 35.1747 24.1753L38.8517 20.4983C36.5299 18.3344 33.4242 17 30.0001 17C25.0068 17 20.6765 19.819 18.499 23.9491Z" fill="#FF3D00"/>
<path id="Vector_3" d="M30 42.9996C33.3578 42.9996 36.4089 41.7146 38.7158 39.6248L34.6923 36.2201C33.3871 37.2088 31.7647 37.7996 30 37.7996C26.6187 37.7996 23.7476 35.6436 22.666 32.6348L18.4268 35.901C20.5782 40.111 24.9475 42.9996 30 42.9996Z" fill="#4CAF50"/>
<path id="Vector_4" d="M42.7471 27.4543H41.6999V27.4004H30V32.6004H37.3469C36.8321 34.0544 35.8968 35.3083 34.6904 36.2215C34.691 36.2208 34.6917 36.2208 34.6923 36.2202L38.7158 39.6249C38.4311 39.8836 42.9999 36.5003 42.9999 30.0004C42.9999 29.1287 42.9102 28.2779 42.7471 27.4543Z" fill="#1976D2"/>
</g>
</g>
</g>
</g>
</svg>
